<svg xmlns="http://www.w3.org/2000/svg" width="294.281" height="96.591" viewBox="0 0 294.281 96.591">
  <g id="Grupo_1946" data-name="Grupo 1946" transform="translate(-1388.448 -1295.978)">
    <rect id="Retângulo_241" data-name="Retângulo 241" width="286.532" height="88.843" rx="40.352" transform="translate(1392.322 1299.852)" fill="#0c3265"/>
    <path id="Caminho_4308" data-name="Caminho 4308" d="M1648.715,1300.978h-224a31.265,31.265,0,0,0-31.265,31.265v9.213a31.265,31.265,0,0,1,31.265-31.265h224a31.265,31.265,0,0,1,31.264,31.265v-9.213A31.265,31.265,0,0,0,1648.715,1300.978Z" transform="translate(-1.126 -1.126)" fill="#1d5095"/>
    <g id="Grupo_1945" data-name="Grupo 1945" transform="translate(1392.322 1348.216)">
      <path id="Caminho_4309" data-name="Caminho 4309" d="M1648.715,1394.664h-38.065a8.555,8.555,0,1,0-16.276,0H1424.713a31.265,31.265,0,0,1-31.265-31.265v9.213a31.265,31.265,0,0,0,31.265,31.265h224a31.265,31.265,0,0,0,31.264-31.265V1363.4A31.265,31.265,0,0,1,1648.715,1394.664Z" transform="translate(-1393.448 -1363.399)" fill="#00214d"/>
      <path id="Caminho_4310" data-name="Caminho 4310" d="M1682.7,1383.152a3.291,3.291,0,1,0-3.291-3.291A3.29,3.29,0,0,0,1682.7,1383.152Z" transform="translate(-1457.845 -1366.365)" fill="#00214d"/>
      <circle id="Elipse_279" data-name="Elipse 279" cx="1.645" cy="1.645" r="1.645" transform="translate(205.774 10.206)" fill="#00214d"/>
    </g>
    <circle id="Elipse_280" data-name="Elipse 280" cx="7.568" cy="7.568" r="7.568" transform="translate(1434.231 1304.459)" fill="#1d5095"/>
    <path id="Caminho_4311" data-name="Caminho 4311" d="M1473.751,1334.245a3.4,3.4,0,1,1,0-4.806A3.4,3.4,0,0,1,1473.751,1334.245Z" transform="translate(-17.903 -7.311)" fill="#1d5095"/>
    <path id="Caminho_4312" data-name="Caminho 4312" d="M1647.589,1299.852a31.265,31.265,0,0,1,31.265,31.265v26.313a31.265,31.265,0,0,1-31.265,31.265h-224a31.265,31.265,0,0,1-31.265-31.265v-26.312a31.265,31.265,0,0,1,31.265-31.265h224m0-3.874h-224a35.179,35.179,0,0,0-35.139,35.139v26.313a35.179,35.179,0,0,0,35.139,35.139h224a35.179,35.179,0,0,0,35.139-35.139v-26.312a35.179,35.179,0,0,0-35.139-35.139Z" fill="#fff"/>
  </g>
</svg>
