<svg xmlns="http://www.w3.org/2000/svg" width="731.188" height="125.045" viewBox="0 0 731.188 125.045">
  <g id="Grupo_1940" data-name="Grupo 1940" transform="translate(-602 -518.519)">
    <path id="Caminho_4297" data-name="Caminho 4297" d="M602,519.34l19.275-.019c17.267.038,19.09,11.522,19.051,34.861-.033,19.363-1.057,29.774-10.256,35.091q4.482,24.638,8.947,48.753-6.175.872-12.346,1.775-4.142-23.372-8.3-47.219-2.088.188-4.177.381-.014,24.351-.029,48.7-6.084.925-12.165,1.881Zm17.884,61.465c7.69-.6,7.865-7.412,7.887-25.437s-.139-24.508-7.845-24.4l-5.7.087q-.014,25.1-.029,50.19Q617.042,581.021,619.884,580.805Z" transform="translate(0 0.017)" fill="#fff"/>
    <path id="Caminho_4298" data-name="Caminho 4298" d="M719.2,519.237l31.513-.02q-.022,5.2-.042,10.4-9.387.09-18.773.188l-.145,36.658q9.217-.409,18.436-.784-.022,5.132-.042,10.262-9.219.458-18.435.954-.078,19.779-.155,39.556,9.465-.855,18.934-1.642-.02,4.988-.04,9.973-15.839,1.451-31.663,3.117Q719,573.569,719.2,519.237Z" transform="translate(2.477 0.015)" fill="#fff"/>
    <path id="Caminho_4299" data-name="Caminho 4299" d="M947.69,519.153h12.572v40.6q6.8-20.3,13.578-40.6h12.237q-6.271,18.259-12.557,36.479,7.144,29.7,14.316,59.5-6.3-.074-12.61-.114-4.971-21.442-9.927-42.845-2.517,7.95-5.038,15.9v26.9q-6.3,0-12.61.034Q947.67,567.078,947.69,519.153Z" transform="translate(7.332 0.013)" fill="#fff"/>
    <path id="Caminho_4300" data-name="Caminho 4300" d="M1066.771,613.394c-5.226-6.068-5.59-15.856-5.677-45.242-.086-28.854.223-38.632,5.064-44.591,3.343-3.839,8.7-5.041,16.077-5.042,7.543,0,12.91,1.2,16.111,4.994,5.219,6.091,5.256,16.13,5.368,45.778.115,31,.152,40.633-5.2,45.989-3.01,3.47-8.379,4.085-15.937,3.68C1075.353,618.574,1069.974,617.117,1066.771,613.394Zm24.193-44.35c-.132-37.089-.144-40.453-8.695-40.493s-8.539,3.287-8.421,40.035c.119,37.017.3,40.474,8.7,40.879C1091.109,609.891,1091.1,606.406,1090.964,569.044Z" transform="translate(9.738 0)" fill="#fff"/>
    <path id="Caminho_4301" data-name="Caminho 4301" d="M1183.241,519.225l12.571.009q.21,54.053.417,108.107-6.279-.646-12.562-1.259Q1183.454,572.654,1183.241,519.225Z" transform="translate(12.329 0.015)" fill="#fff"/>
    <path id="Caminho_4302" data-name="Caminho 4302" d="M1278.115,519.3l14.08.014q5.983,28.316,11.94,57.453,1.426,8.249,2.85,16.556l-.042-73.995,11.9.012V643.548q-6-.942-12-1.855-7.02-34.751-14.086-68.32-1.347-7.311-2.7-14.577l.1,80.422q-5.922-.856-11.848-1.684Z" transform="translate(14.341 0.017)" fill="#fff"/>
    <path id="Caminho_4303" data-name="Caminho 4303" d="M855.244,518.779l-14.415,0q-7.877,49.692-15.784,100.237,6.213-.365,12.428-.7,4.046-29.443,8.084-58.636,1.036-9.214,2.072-18.41.977,9.174,1.955,18.329,3.934,28.974,7.88,57.736,6.467-.29,12.938-.544Q862.8,568.09,855.244,518.779Z" transform="translate(4.731 0.006)" fill="#fff"/>
  </g>
</svg>
