<svg xmlns="http://www.w3.org/2000/svg" width="192.147" height="192.147" viewBox="0 0 192.147 192.147">
  <g id="Grupo_1944" data-name="Grupo 1944" transform="translate(-872.182 -214.181)">
    <g id="Grupo_1943" data-name="Grupo 1943" transform="translate(872.182 310.254) rotate(-45)">
      <path id="Caminho_4717" data-name="Caminho 4717" d="M40.352,0H84.618A40.352,40.352,0,0,1,124.97,40.352V84.618A40.352,40.352,0,0,1,84.618,124.97H40.352A40.352,40.352,0,0,1,0,84.618V40.352A40.352,40.352,0,0,1,40.352,0Z" transform="translate(5.45 5.449)" fill="#00214d"/>
      <path id="Caminho_4305" data-name="Caminho 4305" d="M80.991,43.979H43.979A43.979,43.979,0,0,1,0,0V12.961A43.979,43.979,0,0,0,43.979,56.94H80.991A43.979,43.979,0,0,0,124.97,12.961V0A43.979,43.979,0,0,1,80.991,43.979Z" transform="translate(5.449 73.48)" fill="#00122b"/>
      <g id="Grupo_1941" data-name="Grupo 1941" transform="translate(5.449 5.449)">
        <path id="Caminho_4306" data-name="Caminho 4306" d="M80.991,0H43.979A43.978,43.978,0,0,0,0,43.979v12.96a43.963,43.963,0,0,1,23.815-39.08c0,.064-.01.127-.01.192a10.645,10.645,0,1,0,20-5.086c.059,0,.117,0,.176,0H80.991A43.978,43.978,0,0,1,124.97,56.938V43.979A43.978,43.978,0,0,0,80.991,0Z" fill="#0c3265"/>
        <path id="Caminho_4718" data-name="Caminho 4718" d="M916.5,405.436a26.685,26.685,0,0,0,0,37.7l-9.694,9.693a40.41,40.41,0,0,1,0-57.082Zm14-9.7-9.693,9.7,9.7,9.691,9.691-9.7Zm23.561,2.341-7.389,7.389a28.334,28.334,0,0,1,0,37.629l7.389,7.389a38.776,38.776,0,0,0,0-52.407m.024-2.338a40.409,40.409,0,0,1,0,57.082l-9.693-9.693a26.686,26.686,0,0,0,0-37.7l9.693-9.693Zm-23.822,40.135-7.253,7.257,7.254,7.255,7.774-7.259-7.775-7.253m-.04-2.274,10.213,9.526-10.21,9.534-9.529-9.529,9.526-9.531Z" transform="translate(-295.693 -895.696) rotate(45)" fill="#fff"/>
      </g>
      <g id="Grupo_1942" data-name="Grupo 1942">
        <path id="Caminho_4307" data-name="Caminho 4307" d="M86.44,5.449a43.978,43.978,0,0,1,43.979,43.979V86.44A43.979,43.979,0,0,1,86.44,130.419H49.428A43.979,43.979,0,0,1,5.449,86.44V49.428A43.978,43.978,0,0,1,49.428,5.449H86.44M86.44,0H49.428A49.484,49.484,0,0,0,0,49.428V86.44a49.484,49.484,0,0,0,49.428,49.428H86.44A49.484,49.484,0,0,0,135.869,86.44V49.428A49.483,49.483,0,0,0,86.44,0Z" fill="#fff"/>
      </g>
    </g>
  </g>
</svg>
