<svg width="40" height="33" viewBox="0 0 40 33" fill="none" xmlns="http://www.w3.org/2000/svg">
<path d="M37.6853 13.6902C36.1006 8.24548 34.3135 5.43224 34.2847 5.38177C34.1828 5.25743 31.6574 2.23532 25.5708 0L24.7665 2.18975C27.6621 3.25322 29.7164 4.55058 30.8462 5.38885C27.4732 4.38161 23.4607 3.76473 19.9069 3.76473C16.353 3.76473 12.3405 4.38161 8.96749 5.38885C10.0972 4.55066 12.1515 3.25322 15.0471 2.18975L14.2428 0C8.15637 2.23532 5.631 5.25743 5.52913 5.38177C5.50028 5.43224 3.71309 8.24548 2.12848 13.6902C0.601249 18.9372 0.0210733 26.3392 0 26.636C0.136082 26.8487 3.26597 32.1925 11.7958 32.1925L13.9579 29.0617C11.5356 28.4185 9.22589 27.3813 7.11157 25.9739L8.40419 24.032C11.8152 26.3024 15.7927 27.5026 19.9069 27.5026C24.021 27.5026 27.9985 26.3024 31.4095 24.032L32.7021 25.9739C30.5879 27.3813 28.2781 28.4185 25.8558 29.0617L28.0179 32.1925C36.5477 32.1925 39.6776 26.8487 39.8137 26.636C39.7926 26.3392 39.2125 18.9372 37.6853 13.6902ZM14.5135 19.793H12.1807V15.905H14.5135V19.793ZM27.633 19.793H25.3002V15.905H27.633V19.793Z" fill="#7289DA"></path>
</svg>