<svg width="40" height="38" viewBox="0 0 40 38" fill="none" xmlns="http://www.w3.org/2000/svg">
<path d="M35.5415 14.5523C34.2782 14.5523 33.1666 15.0794 32.3482 15.9005C29.3399 13.8056 25.2832 12.4574 20.7882 12.3137L23.1232 1.72983L30.5582 3.40843C30.5582 5.23904 32.0416 6.73426 33.8615 6.73426C35.7165 6.73426 37.2082 5.19939 37.2082 3.36713C37.2082 1.53487 35.7266 0 33.8632 0C32.5649 0 31.4449 0.788087 30.8866 1.8653L22.6749 0.0346957C22.2616 -0.076 21.8566 0.221391 21.7466 0.637739L19.1832 12.3054C14.7232 12.4921 10.7099 13.8386 7.69159 15.9352C6.87326 15.0794 5.71826 14.5523 4.45493 14.5523C-0.231729 14.5523 -1.76673 20.8785 2.52493 23.0412C2.37327 23.7103 2.30493 24.4241 2.30493 25.1362C2.30493 32.2422 10.2633 38 20.0349 38C29.8482 38 37.8065 32.2422 37.8065 25.1362C37.8065 24.4241 37.7315 23.6773 37.5465 23.0065C41.7515 20.8356 40.2032 14.5557 35.5415 14.5523ZM9.33492 23.4906C9.33492 21.6253 10.8183 20.1235 12.6816 20.1235C14.5016 20.1235 15.9866 21.6154 15.9866 23.4906C15.9866 25.3229 14.5032 26.8164 12.6816 26.8164C10.8266 26.8247 9.33492 25.3229 9.33492 23.4906ZM27.3999 31.4177C24.3316 34.504 15.6732 34.504 12.6033 31.4177C12.2649 31.1203 12.2649 30.595 12.6033 30.2563C12.8983 29.9589 13.4216 29.9589 13.7166 30.2563C16.0599 32.6734 23.8332 32.7147 26.2782 30.2563C26.5732 29.9589 27.0966 29.9589 27.3916 30.2563C27.7366 30.5966 27.7366 31.122 27.3999 31.4177ZM27.3316 26.823C25.5116 26.823 24.0282 25.3311 24.0282 23.5005C24.0282 21.6352 25.5116 20.1334 27.3316 20.1334C29.1866 20.1334 30.6782 21.6253 30.6782 23.5005C30.6699 25.3229 29.1866 26.823 27.3316 26.823Z" fill="#FF5700"></path>
</svg>