<svg width="40" height="32" viewBox="0 0 40 32" fill="none" xmlns="http://www.w3.org/2000/svg">
<path d="M35.89 7.98031C37.5167 6.84308 38.885 5.42359 40 3.78913V3.78749C38.5117 4.42913 36.9283 4.85579 35.275 5.06256C36.975 4.06318 38.2733 2.49272 38.8833 0.600615C37.2983 1.53108 35.5483 2.18749 33.6833 2.55508C32.1783 0.97641 30.0333 0 27.6933 0C23.1533 0 19.4983 3.62831 19.4983 8.07549C19.4983 8.71549 19.5533 9.33087 19.6883 9.91672C12.8717 9.58851 6.83833 6.3721 2.785 1.47036C2.07833 2.67979 1.66167 4.06318 1.66167 5.55159C1.66167 8.3479 3.12333 10.8258 5.305 12.2617C3.98667 12.2371 2.695 11.8597 1.6 11.2673V11.3559C1.6 15.2796 4.44167 18.5387 8.17 19.2903C7.50167 19.4708 6.775 19.5561 6.02 19.5561C5.495 19.5561 4.965 19.5266 4.46833 19.4183C5.53 22.615 8.54667 24.9666 12.13 25.0437C9.34 27.1918 5.79667 28.4866 1.96167 28.4866C1.29 28.4866 0.645 28.457 0 28.3766C3.63333 30.6823 7.93667 32 12.58 32C27.0517 32 36.4833 20.1124 35.89 7.98031Z" fill="#1DA1F2"></path>
</svg>